<svg width="512" height="512" viewBox="0 0 512 512" fill="none" xmlns="http://www.w3.org/2000/svg">
  <rect width="512" height="512" rx="128" fill="#3B82F6"/>
  <path d="M128 256C128 185.3 185.3 128 256 128C326.7 128 384 185.3 384 256C384 326.7 326.7 384 256 384C185.3 384 128 326.7 128 256ZM256 362.7C303.1 362.7 341.3 325.5 341.3 278.9C341.3 266.6 337.5 255.4 331.3 246.2L256 149.3L180.7 246.2C174.5 255.4 170.7 266.6 170.7 278.9C170.7 325.5 208 362.7 256 362.7Z" fill="white"/>
  <path d="M256 320C279.5 320 298.7 300.8 298.7 277.3C298.7 264.5 292.5 253.1 282.7 246.9L256 227.6L229.3 246.9C219.5 253.1 213.3 264.5 213.3 277.3C213.3 300.8 232.5 320 256 320Z" fill="#3B82F6"/>
</svg>
